<?xml version="1.0" encoding="utf-8"?><svg viewBox="0 0 41 30" xmlns="http://www.w3.org/2000/svg" xmlns:xlink="http://www.w3.org/1999/xlink"><style>:root>svg{display:none}:root>svg:target{display:block}</style><svg viewBox="0 0 41 30" id="americanexpress" xmlns="http://www.w3.org/2000/svg"><path d="M2 0h36.056a2 2 0 012 2v26a2 2 0 01-2 2H2A2 2 0 010 28V2a2 2 0 012-2z" fill="#0072CE"/><path d="M35.938 20.516c.622 0 1.082-.174 1.317-.517v1.051c-.389.187-.9.26-1.423.26h-2.515v-.361c-.291.233-.818.361-1.321.361h-7.929v-1.304c0-.16-.016-.166-.176-.166h-.126v1.47h-2.61v-1.523c-.437.188-.932.205-1.352.199h-.311v1.327l-3.165-.003-.778-.877-.826.877H9.59v-5.642h5.232l.75.863.802-.863h3.503c.405 0 1.069.042 1.368.33v-.33h3.13c.293 0 .93.059 1.308.33v-.33h4.745v.33c.236-.225.734-.33 1.16-.33h2.656v.33c.279-.2.673-.33 1.215-.33h1.796v.804h-1.933c-1.019 0-1.393.618-1.393 1.204 0 1.196.993 1.223 1.867 1.247l.182.005c.169 0 .271.028.342.09.07.056.118.15.118.267 0 .11-.047.201-.115.264-.078.076-.207.1-.392.1h-1.867v.867h1.874zM19.846 19.16c.848 0 1.69-.232 1.69-1.356 0-1.12-.865-1.332-1.636-1.332H16.8l-1.235 1.326-1.194-1.326h-3.904v4.044h3.845l1.242-1.339 1.195 1.34h1.887V19.16h1.21zm5.365-.523c.217.08.393.222.476.34.137.197.157.381.16.737v.802h-.974v-.506-.076c.003-.237.006-.546-.157-.715-.141-.145-.358-.18-.712-.18h-1.037v1.477h-.975v-4.044h2.24c.492 0 .85.022 1.168.191.307.184.5.437.5.898 0 .646-.433.975-.689 1.076zm4.466-2.165h-3.24v4.044h3.24v-.839l-2.273-.004v-.804h2.218v-.825h-2.218v-.735h2.273v-.837zm3.707 1.911c.189.195.29.44.29.857 0 .87-.546 1.276-1.525 1.276h-1.89v-.867h1.883c.184 0 .314-.024.396-.1a.358.358 0 00.115-.264.346.346 0 00-.119-.267c-.074-.062-.176-.09-.345-.09l-.181-.005c-.871-.024-1.864-.05-1.864-1.247 0-.586.37-1.204 1.388-1.204h1.946v.861h-1.78c-.177 0-.292.007-.39.073-.106.066-.145.163-.145.291 0 .153.09.256.212.301.102.036.212.046.378.046l.522.014c.527.013.889.104 1.109.325zm-17.206.118l1.49 1.647v-3.242l-1.49 1.595zm-2.358 1.172h-2.387v-.804h2.131v-.825h-2.13v-.735h2.433l1.061 1.178-1.108 1.186zm6.069-1.335h-1.254v-1.03H19.9c.35 0 .594.143.594.496 0 .35-.232.534-.605.534zm4.257-.121c.189 0 .35-.007.48-.083a.436.436 0 00.2-.389c0-.173-.075-.298-.2-.363-.118-.07-.291-.073-.464-.073h-1.195v.908h1.179zm11.34-.884h1.77v1.15c-.028-.034-.051-.069-.09-.1-.217-.221-.571-.312-1.102-.325l-.526-.014a1.11 1.11 0 01-.374-.046.305.305 0 01-.212-.301c0-.128.04-.226.142-.291.098-.067.216-.073.392-.073zM4.381 14.35H2.723v-2.957l1.175-2.68H6.43l.326.665v-.666h2.968l.65 1.456.632-1.456h9.422c.429 0 .814.08 1.097.33v-.33h2.579v.33c.444-.243.994-.33 1.62-.33h3.737l.347.666v-.666h2.767l.377.666v-.666h2.697v5.639h-2.725l-.515-.853v.853h-3.4l-.37-.898h-.836l-.378.898H25.66c-.693 0-1.219-.163-1.557-.343v.343h-4.194v-1.28c0-.18-.032-.19-.142-.194h-.157l.004 1.474h-8.11v-.697l-.29.7H9.518l-.29-.69v.687H5.964l-.373-.898h-.837l-.374.898zm8.821-.793h-.995l-.003-3.167-1.408 3.167h-.852l-1.411-3.17v3.17H6.559l-.373-.902H4.165l-.377.902H2.734l1.738-4.043h1.442l1.651 3.828V9.514h1.584l1.27 2.742 1.167-2.742h1.616v4.043zm.724 0h3.242v-.837h-2.272v-.807h2.218v-.829h-2.218v-.728h2.272v-.842h-3.242v4.043zm7.814-2.954c0 .644-.432.977-.684 1.077.212.08.394.223.48.34.137.202.16.381.16.742v.795h-.978l-.004-.51v-.077c.003-.236.006-.536-.153-.71-.142-.143-.358-.174-.708-.174h-1.042v1.47h-.97V9.515h2.232c.496 0 .862.013 1.176.193.307.181.49.445.49.896zm.563 2.954h.99V9.514h-.99v4.043zm12.48 0h-1.376l-1.84-3.035v3.035h-1.976l-.378-.902h-2.016l-.367.902h-1.135c-.472 0-1.07-.104-1.408-.448-.34-.343-.518-.808-.518-1.543 0-.6.106-1.148.523-1.58.314-.323.805-.472 1.474-.472h.94v.866h-.92c-.355 0-.555.052-.747.24-.166.17-.28.492-.28.915 0 .433.087.746.268.95.149.16.42.208.676.208h.436l1.368-3.18h1.454l1.643 3.825V9.514h1.478l1.706 2.816V9.514h.995v4.043zM5.835 11.812L5.171 10.2l-.66 1.612h1.324zM28.211 10.2l.671 1.612h-1.34l.669-1.612zm-7.74.97c-.134.08-.292.084-.48.084h-1.18v-.898h1.195c.17 0 .346.007.46.073.127.058.205.184.205.357 0 .177-.075.319-.2.384z" fill="#FFF" fill-rule="evenodd"/></svg><svg viewBox="0 0 41 30" id="discover" xmlns="http://www.w3.org/2000/svg"><defs><path d="M2 0h36.056a2 2 0 012 2v26a2 2 0 01-2 2H2A2 2 0 010 28V2a2 2 0 012-2z" id="ba"/><path d="M0 9.685h25.982a2 2 0 002-2V0S18.098 6.69 0 9.685z" transform="translate(12.074 20.315)" id="bb"/><clipPath id="bc"><use xlink:href="#ba"/></clipPath></defs><use fill="#FFF" xlink:href="#ba"/><g clip-path="url(#bc)"><use xlink:href="#ba" fill="none" stroke="#E6772F" stroke-width="2"/></g><path d="M12.074 30h25.982a2 2 0 002-2v-7.685S30.173 27.005 12.074 30z" fill="#E6772F"/><path d="M3.033 11.542H4.59c1.718 0 2.916 1.016 2.916 2.479 0 .73-.367 1.436-.986 1.903-.521.394-1.116.573-1.94.573H3.034v-4.955zm1.345 4.115c.685 0 1.114-.12 1.451-.394.365-.296.584-.772.584-1.249 0-.475-.22-.935-.584-1.232-.353-.289-.766-.4-1.451-.4h-.285v3.275h.285z" fill="#1A1919" fill-rule="evenodd"/><path d="M7.995 11.542H9.05v4.955H7.995v-4.955zM11.643 13.441c-.637-.213-.823-.355-.823-.623 0-.31.332-.547.79-.547.318 0 .579.116.857.399l.552-.66c-.456-.365-1.001-.55-1.595-.55-.962 0-1.695.61-1.695 1.416 0 .685.341 1.033 1.335 1.363.416.131.627.221.734.282.212.125.317.304.317.511 0 .403-.35.7-.823.7-.504 0-.912-.23-1.156-.663l-.683.603c.488.653 1.074.945 1.88.945 1.1 0 1.875-.672 1.875-1.628 0-.789-.36-1.146-1.565-1.548M13.54 14.02c0 1.458 1.255 2.587 2.87 2.587.455 0 .845-.082 1.325-.289V15.18c-.424.389-.797.542-1.28.542-1.066 0-1.822-.704-1.822-1.708 0-.949.78-1.7 1.776-1.7.503 0 .887.162 1.326.556v-1.137c-.464-.214-.845-.303-1.304-.303-1.605 0-2.89 1.152-2.89 2.59M26.32 14.869l-1.45-3.327h-1.155l2.303 5.08h.569l2.347-5.08h-1.146L26.32 14.87M29.415 16.497h3.005v-.84h-1.945V14.32h1.87v-.84h-1.87v-1.099h1.945v-.839h-3.005v4.955" fill="#1A1919"/><path d="M34.693 11.542c1.223 0 1.921.534 1.921 1.462 0 .758-.438 1.256-1.237 1.405l1.71 2.088h-1.304l-1.464-1.992h-.137v1.992h-1.063v-4.955h1.574zm-.511 2.279h.307c.68 0 1.034-.267 1.034-.763 0-.483-.355-.736-1.017-.736h-.324v1.499z" fill="#1A1919" fill-rule="evenodd"/><path d="M23.865 14.032c0 1.427-1.268 2.583-2.832 2.583-1.565 0-2.832-1.156-2.832-2.583 0-1.426 1.267-2.583 2.831-2.583 1.565 0 2.833 1.157 2.833 2.583" fill="#E6772F"/></svg><svg viewBox="0 0 41 30" id="mastercard" xmlns="http://www.w3.org/2000/svg"><path d="M2 0h36.056a2 2 0 012 2v26a2 2 0 01-2 2H2A2 2 0 010 28V2a2 2 0 012-2z" fill="#006"/><path d="M23.289 15.243c0 5.389-4.31 9.757-9.627 9.757-5.318 0-9.628-4.368-9.628-9.757 0-5.39 4.31-9.758 9.628-9.758 5.317 0 9.627 4.369 9.627 9.758" fill="#C00"/><path d="M26.587 5.485a9.523 9.523 0 00-6.463 2.526 9.89 9.89 0 00-.972 1.033h1.945c.266.328.51.672.734 1.033h-3.413c-.204.332-.39.676-.555 1.034h4.523c.154.334.29.679.407 1.033h-5.338a9.817 9.817 0 00-.28 1.032h5.898a9.956 9.956 0 01-.28 5.166h-5.338c.118.354.254.7.408 1.034h4.523c-.166.356-.35.701-.556 1.033h-3.412c.222.36.468.705.734 1.033h1.945a9.693 9.693 0 01-.973 1.033A9.521 9.521 0 0026.587 25c5.317 0 9.627-4.368 9.627-9.757 0-5.389-4.31-9.758-9.627-9.758" fill="#F90"/><path d="M11.307 18.104h.867c.026-.304.22-1.554.312-2.137.052-.336.086-.59.084-.797.001-.772-.474-1.18-1.372-1.18-.387 0-.73.057-1.25.213l-.146.905a3.443 3.443 0 011.107-.182c.488 0 .67.1.67.367 0 .072-.009.128-.04.26a3.529 3.529 0 00-.427-.03c-1.16 0-1.835.571-1.835 1.552 0 .65.389 1.099.955 1.099.479 0 .831-.157 1.095-.487l-.02.417zm-.127-1.81c.075 0 .124.004.233.017-.018.595-.325 1.006-.75 1.006-.229 0-.375-.16-.375-.41 0-.407.3-.613.892-.613z" fill="#006" fill-rule="evenodd"/><path d="M8.84 18.104H7.794l.6-3.804-1.338 3.804h-.712l-.088-3.783-.63 3.783h-.978l.818-4.949h1.503l.09 2.77.917-2.77h1.672l-.808 4.95" fill="#006"/><path d="M27.773 18.104h.866c.026-.304.222-1.554.312-2.137.053-.336.086-.59.085-.797 0-.772-.474-1.18-1.373-1.18-.386 0-.73.057-1.25.213 0 0-.134.838-.146.905a3.45 3.45 0 011.107-.182c.488 0 .67.1.67.367a1 1 0 01-.04.26 3.528 3.528 0 00-.426-.03c-1.16 0-1.835.571-1.835 1.552 0 .65.388 1.099.955 1.099.478 0 .83-.157 1.095-.487l-.02.417zm-.127-1.81c.075 0 .123.004.233.017-.018.595-.325 1.006-.75 1.006-.23 0-.375-.16-.375-.41 0-.407.3-.613.892-.613z" fill="#006" fill-rule="evenodd"/><path d="M16.819 18.043a2.36 2.36 0 01-.751.131c-.534 0-.826-.311-.826-.884-.008-.178.077-.646.143-1.073.06-.376.453-2.747.453-2.747h1.04l-.122.61h.628l-.142.967h-.63c-.12.765-.293 1.719-.295 1.845 0 .208.11.298.358.298a.84.84 0 00.282-.038l-.138.891" fill="#006"/><path d="M18.938 18.174a3.49 3.49 0 001.066-.163l.173-1.001a2.437 2.437 0 01-1.08.253c-.605 0-.973-.243-.903-.827h2.069a4.36 4.36 0 00.128-.99c0-.89-.547-1.456-1.404-1.456-1.047 0-1.818 1.013-1.818 2.388 0 1.18.606 1.794 1.77 1.796zm.484-2.571l-.002.022h-1.147c.096-.463.333-.719.663-.719.557 0 .5.558.486.697z" fill="#006" fill-rule="evenodd"/><path d="M12.8 15.352c0 .509.244.86.796 1.124.423.202.49.261.49.444 0 .25-.188.364-.601.364-.312 0-.602-.05-.937-.159l-.143.93c.237.052.45.1 1.087.119 1.103 0 1.613-.426 1.613-1.345 0-.553-.213-.878-.737-1.122-.438-.204-.489-.25-.489-.437 0-.218.174-.33.512-.33a5.7 5.7 0 01.75.061l.15-.933a6.965 6.965 0 00-.92-.078c-1.17 0-1.574.618-1.57 1.362M25.087 14.096c.29 0 .562.076.934.267l.172-1.074c-.154-.061-.693-.42-1.15-.42-.698 0-1.29.353-1.706.933-.607-.204-.856.208-1.162.618l-.271.064c.02-.135.039-.269.033-.405h-.96c-.131 1.246-.364 2.508-.545 3.755l-.048.27h1.046c.174-1.149.27-1.885.328-2.383l.394-.221c.059-.222.242-.297.612-.288a4.568 4.568 0 00-.075.825c0 1.317.702 2.137 1.827 2.137.29 0 .539-.039.924-.145l.183-1.128c-.346.173-.63.254-.887.254-.608 0-.976-.455-.976-1.206 0-1.09.547-1.853 1.327-1.853" fill="#006"/><path d="M33.704 14.585l.232-1.43h1.031l-.796 4.95h-.989l.05-.375c-.287.31-.581.444-.964.444-.76 0-1.262-.664-1.262-1.67 0-.463.093-.914.253-1.306-.281-.014-.452.156-.684.388-.065.065-.135.134-.213.206-.08.611-.187 1.384-.328 2.312h-1.046l.048-.27c.181-1.247.414-2.509.544-3.755h.96c.004.07-.01.271-.045.602.007.003.456.158.89.249.314-.597.794-1.002 1.321-1.002.406 0 .713.276.998.657zm-1.61 1.796c0 .526.18.794.535.794.487 0 .829-.56.829-1.358 0-.51-.195-.788-.554-.788-.474 0-.81.56-.81 1.352z" fill="#006" fill-rule="evenodd"/><path d="M9.14 17.81H8.095l.6-3.804-1.338 3.805h-.712l-.088-3.783-.63 3.783H4.95l.817-4.95H7.27l.042 3.064 1.015-3.063h1.623L9.14 17.81" fill="#FFF"/><path d="M11.609 17.81h.865c.027-.303.222-1.554.313-2.136a5.22 5.22 0 00.084-.798c0-.771-.474-1.18-1.372-1.18-.386 0-.73.058-1.25.213l-.146.905a3.43 3.43 0 011.107-.18c.488 0 .67.099.67.365 0 .072-.009.129-.04.262a3.446 3.446 0 00-.427-.031c-1.16 0-1.835.57-1.835 1.55 0 .652.388 1.1.955 1.1.479 0 .831-.157 1.095-.486l-.02.417zm-.128-1.809c.075 0 .124.004.233.017-.018.595-.325 1.006-.75 1.006-.229 0-.375-.16-.375-.41 0-.407.3-.613.892-.613z" fill="#FFF" fill-rule="evenodd"/><path d="M26.493 12.995l-.171 1.074c-.373-.19-.644-.267-.934-.267-.78 0-1.327.764-1.327 1.855 0 .75.367 1.204.975 1.204.258 0 .542-.08.888-.253l-.184 1.127c-.385.107-.634.146-.923.146-1.126 0-1.827-.82-1.827-2.137 0-1.77.97-3.006 2.354-3.006.457 0 .996.196 1.15.257" fill="#FFF"/><path d="M28.074 17.81h.866c.027-.303.222-1.554.312-2.136.053-.335.087-.591.085-.798 0-.771-.475-1.18-1.373-1.18-.386 0-.73.058-1.25.213l-.145.905a3.432 3.432 0 011.106-.18c.489 0 .67.099.67.365 0 .072-.008.129-.04.262a3.437 3.437 0 00-.426-.031c-1.16 0-1.835.57-1.835 1.55 0 .652.388 1.1.955 1.1.478 0 .83-.157 1.095-.486l-.02.417zm-.127-1.809c.075 0 .123.004.232.017-.017.595-.324 1.006-.75 1.006-.228 0-.374-.16-.374-.41 0-.407.3-.613.892-.613z" fill="#FFF" fill-rule="evenodd"/><path d="M17.12 17.75c-.287.091-.51.13-.751.13-.535 0-.827-.31-.827-.883-.007-.179.078-.646.144-1.073.06-.377.453-2.747.453-2.747h1.04l-.122.609h.533l-.142.967h-.535c-.12.766-.293 1.72-.295 1.846 0 .208.11.298.358.298.12 0 .211-.012.282-.038l-.139.89" fill="#FFF"/><path d="M19.239 17.88c.364 0 .71-.051 1.066-.162l.173-1.002a2.435 2.435 0 01-1.08.254c-.605 0-.974-.243-.903-.827h2.069c.09-.407.128-.695.128-.99 0-.89-.547-1.457-1.405-1.457-1.046 0-1.817 1.013-1.817 2.39 0 1.178.606 1.794 1.769 1.795zm.484-2.572l-.002.023h-1.147c.096-.462.333-.719.664-.719.555 0 .5.556.485.696z" fill="#FFF" fill-rule="evenodd"/><path d="M13.101 15.058c0 .51.244.86.796 1.124.424.202.49.262.49.445 0 .25-.188.364-.601.364a2.91 2.91 0 01-.937-.159l-.143.93c.237.052.45.1 1.087.119 1.103 0 1.613-.426 1.613-1.346 0-.553-.214-.877-.737-1.121-.438-.204-.489-.25-.489-.438 0-.217.174-.33.512-.33.205 0 .485.024.75.062l.15-.933a7.022 7.022 0 00-.92-.08c-1.17 0-1.574.62-1.57 1.363" fill="#FFF"/><path d="M33.483 17.81h.989l.796-4.948h-1.03l-.233 1.43c-.285-.381-.592-.549-.998-.549-.921 0-1.7 1.129-1.7 2.467 0 1.007.502 1.67 1.262 1.67.383 0 .677-.133.963-.444l-.049.375zm.276-2.285c0 .797-.342 1.356-.829 1.356-.355 0-.536-.267-.536-.793 0-.792.337-1.353.811-1.353.36 0 .554.278.554.79z" fill="#FFF" fill-rule="evenodd"/><path d="M29.881 13.786c-.13 1.246-.363 2.507-.545 3.754l-.047.27h1.045c.374-2.46.464-2.94 1.05-2.88.094-.505.268-.946.397-1.168-.437-.093-.682.158-1.002.634.025-.206.071-.406.063-.61h-.96M21.278 13.786c-.131 1.246-.364 2.507-.546 3.754l-.047.27h1.046c.374-2.46.463-2.94 1.049-2.88.094-.505.268-.946.397-1.168-.437-.093-.682.158-1.002.634.025-.206.072-.406.063-.61h-.96" fill="#FFF"/></svg><svg viewBox="0 0 41 30" id="visa" xmlns="http://www.w3.org/2000/svg"><path d="M2 0h36.056a2 2 0 012 2v26a2 2 0 01-2 2H2A2 2 0 010 28V2a2 2 0 012-2z" fill="#26337A"/><path d="M14.766 19.773l1.54-9.537h2.46l-1.54 9.537h-2.46M26.153 10.47a6.091 6.091 0 00-2.205-.4c-2.433 0-4.146 1.295-4.16 3.148-.016 1.37 1.222 2.135 2.155 2.59.959.468 1.28.767 1.277 1.184-.006.639-.765.932-1.473.932-.985 0-1.508-.144-2.318-.5l-.316-.152-.344 2.134c.573.266 1.637.497 2.741.509 2.586 0 4.266-1.279 4.286-3.258.009-1.087-.647-1.91-2.067-2.591-.86-.442-1.388-.735-1.382-1.183 0-.396.446-.82 1.41-.82a4.322 4.322 0 011.841.366l.221.109.334-2.068" fill="#FFFFFE"/><path d="M30.563 10.246h1.902l1.992 9.53h-2.284s-.226-1.095-.3-1.428l-3.152-.005c-.095.258-.517 1.434-.517 1.434h-2.585l3.655-8.74c.258-.622.7-.79 1.29-.79zm-.153 3.48s-.777 2.118-.98 2.666h2.042c-.097-.477-.57-2.753-.57-2.753l-.165-.823c-.066.19-.158.442-.228.632-.062.169-.106.29-.1.278z" fill="#FFFFFE" fill-rule="evenodd"/><path d="M12.701 10.244l-2.409 6.502-.258-1.321c-.448-1.523-1.846-3.174-3.409-4l2.204 8.34 2.604-.001 3.876-9.52H12.7" fill="#FFFFFE"/><path d="M8.056 10.238H4.088l-.033.197c3.088.79 5.131 2.697 5.98 4.99l-.863-4.382c-.149-.605-.581-.784-1.116-.805" fill="#EC982D"/></svg></svg>