<?xml version="1.0" encoding="utf-8"?><svg viewBox="0 0 12 12" xmlns="http://www.w3.org/2000/svg" xmlns:xlink="http://www.w3.org/1999/xlink"><style>:root>svg{display:none}:root>svg:target{display:block}</style><svg viewBox="0 0 10 7" id="arrow" xmlns="http://www.w3.org/2000/svg"><path d="M4.706 6.462L0 1.725 1.715 0l2.99 3.01L7.698 0l1.715 1.725-4.706 4.737z" fill="#444"/></svg><svg viewBox="0 0 12 12" id="shape" xmlns="http://www.w3.org/2000/svg"><path d="M0 6c0-3.308 2.692-6 6-6s6 2.692 6 6-2.692 6-6 6-6-2.692-6-6zm1.5 0c0 2.482 2.018 4.5 4.5 4.5s4.5-2.018 4.5-4.5S8.482 1.5 6 1.5A4.505 4.505 0 001.5 6zm5.817-2.72c.143.065.507.352.59.442.082.091.253.429.284.527.032.098.032.685 0 .791a2.174 2.174 0 01-.141.35 2.796 2.796 0 01-.318.39 4.305 4.305 0 01-.39.28c-.074.047-.306.212-.37.261-.063.05-.206.215-.203.232.003.019-.357.197-.77.197-.412 0-.71-.069-.664-.154.046-.085.207-.378.256-.46.049-.08.25-.306.31-.364a6 6 0 01.353-.269 5.54 5.54 0 00.314-.25c.052-.047.179-.234.204-.296.026-.061.026-.358.007-.478s-.32-.42-.5-.52h-.407a2.427 2.427 0 00-.369.154.93.93 0 00-.2.21 3.125 3.125 0 00-.053.478c0 .165-.338.449-.75.449-.413 0-.736-.177-.719-.394.018-.218.197-.746.266-.872.07-.126.415-.482.532-.57.117-.09.742-.332 1.059-.415h.768c.357.089.768.216.91.28zM6 7.5a.75.75 0 11.001 1.499A.75.75 0 016 7.5z" fill="#278AE2" fill-rule="evenodd"/></svg></svg>