<?xml version="1.0" encoding="utf-8"?><svg viewBox="0 0 112 71" xmlns="http://www.w3.org/2000/svg" xmlns:xlink="http://www.w3.org/1999/xlink"><style>:root>svg{display:none}:root>svg:target{display:block}</style><svg viewBox="0 0 112 71" id="AE" xmlns="http://www.w3.org/2000/svg"><defs><path d="M14.5 14C22.508 14 29 10.866 29 7s-6.492-7-14.5-7S0 3.134 0 7s6.492 7 14.5 7z" transform="translate(74 26)" id="aa"/></defs><path d="M4.999 2h102.002A3 3 0 01110 4.999v61.002A3 3 0 01107.001 69H4.999A2.999 2.999 0 012 66.001V4.999A2.999 2.999 0 014.999 2z" fill="#3BB89A"/><g fill="#FFF"><path d="M42.145 15.613l-1.122-.355q-.144.629-.476.922-.332.293-.793.293-.625 0-1.016-.461-.39-.461-.39-1.547 0-1.024.396-1.48.397-.458 1.033-.458.461 0 .783.258.323.258.424.703l1.145-.273q-.195-.688-.586-1.055-.656-.62-1.707-.62-1.203 0-1.942.79-.738.791-.738 2.22 0 1.352.735 2.132.734.779 1.875.779.921 0 1.521-.455.6-.455.857-1.393zm42.722-.222l-1.125.109q.114.96.695 1.463.582.502 1.669.502.746 0 1.246-.21.5-.208.773-.638.273-.43.273-.922 0-.543-.228-.912-.229-.369-.633-.582-.404-.213-1.248-.412-.844-.2-1.062-.383-.172-.144-.172-.347 0-.223.183-.356.285-.207.79-.207.488 0 .732.193.244.194.318.635l1.156-.05q-.027-.79-.572-1.262-.545-.473-1.623-.473-.66 0-1.127.2-.467.199-.715.58-.248.38-.248.818 0 .68.528 1.152.375.336 1.304.566.723.18.926.25.297.106.416.249.12.142.12.345 0 .317-.284.553-.283.236-.842.236-.527 0-.838-.265-.31-.266-.412-.832zm-69.379 1.972h1.258l-2.293-5.726H13.23L11 17.363h1.227l.472-1.3h2.29l.5 1.3zm1.856-5.726v5.726h1.074v-4.508l1.133 4.508h1.113l1.137-4.508v4.508h1.074v-5.726h-1.734l-1.028 3.906-1.039-3.906h-1.73zm6.68 5.726v-5.726h4.246v.968h-3.09v1.27h2.875v.965H25.18v1.558h3.199v.965h-4.356zm5.34-5.726v5.726h1.156v-2.39h.234q.398 0 .582.064.184.065.348.238.164.174.609.842l.836 1.246h1.383l-.7-1.117q-.414-.668-.658-.93-.244-.261-.619-.48.754-.11 1.133-.53.379-.42.379-1.064 0-.508-.25-.902-.25-.395-.666-.549-.416-.154-1.334-.154h-2.434zm5.738 5.726v-5.726h1.156v5.726h-1.156zm13.199 0h-1.258l-.5-1.3h-2.29l-.472 1.3h-1.226l2.23-5.726h1.223l2.293 5.726zm.625-5.726v5.726H50V13.63l2.309 3.734h1.16v-5.726h-1.074v3.824l-2.344-3.824h-1.125zm7.988 5.726v-5.726h4.246v.968h-3.09v1.27h2.875v.965H58.07v1.558h3.2v.965h-4.356zm6.711-2.988l-1.957 2.988h1.387l1.273-1.98 1.27 1.98h1.394l-1.957-2.945 1.781-2.781h-1.34l-1.124 1.84-1.149-1.84h-1.351l1.773 2.738zm3.96 2.988v-5.726h1.856q1.055 0 1.375.086.493.129.825.56.332.432.332 1.115 0 .528-.192.887-.191.36-.486.565-.295.205-.6.271-.414.082-1.199.082h-.754v2.16h-1.156zm5.34-5.726v5.726h1.157v-2.39h.234q.399 0 .582.064.184.065.348.238.164.174.61.842l.835 1.246h1.383l-.699-1.117q-.414-.668-.658-.93-.244-.261-.62-.48.755-.11 1.134-.53.378-.42.378-1.064 0-.508-.25-.902-.25-.395-.666-.549-.416-.154-1.334-.154h-2.433zm5.774 5.726v-5.726h4.246v.968h-3.09v1.27h2.876v.965h-2.875v1.558h3.199v.965h-4.356zM31.375 14.06h-.855v-1.454h.902q.703 0 .844.02.28.047.435.225.155.177.155.466 0 .258-.118.43-.117.172-.324.242-.207.07-1.039.07zm37.367-1.454v1.625h.633q.684 0 .914-.09.23-.09.361-.28.131-.192.131-.446 0-.312-.183-.516-.184-.203-.465-.253-.207-.04-.832-.04h-.559zm6.196 1.454h-.856v-1.454h.902q.704 0 .844.02.281.047.436.225.154.177.154.466 0 .258-.117.43t-.324.242q-.207.07-1.04.07zm-61.11-1.086l.79 2.125h-1.563l.773-2.125zm32.344 2.125l-.79-2.125-.773 2.125h1.563zM89.078 15.5l1.125-.11q.102.567.412.833.31.265.838.265.559 0 .842-.236.283-.236.283-.553 0-.203-.119-.345-.12-.143-.416-.249-.203-.07-.926-.25-.93-.23-1.305-.566-.527-.473-.527-1.152 0-.438.248-.819.248-.38.715-.58.467-.199 1.127-.199 1.078 0 1.623.473.545.472.572 1.261l-1.156.051q-.074-.441-.318-.635-.244-.193-.733-.193-.504 0-.789.207-.183.133-.183.356 0 .203.171.347.22.184 1.063.383.844.2 1.248.412.404.213.633.582.228.37.228.912 0 .492-.273.922-.273.43-.773.639-.5.209-1.247.209-1.085 0-1.668-.502-.582-.502-.695-1.463z"/></g><path d="M12.542 57.221h-1.235v-4.654q-.677.633-1.595.936v-1.12q.483-.158 1.05-.6.567-.442.778-1.03h1.002v6.468zm6.016-1.147v1.147H14.23q.07-.65.422-1.232.352-.583 1.389-1.545.835-.778 1.024-1.055.255-.382.255-.756 0-.413-.222-.635-.222-.222-.613-.222-.387 0-.615.233-.229.233-.264.774l-1.23-.123q.11-1.02.69-1.464.58-.444 1.45-.444.953 0 1.498.515.545.514.545 1.278 0 .435-.156.829-.156.393-.494.824-.224.285-.809.822-.584.536-.74.711-.156.176-.253.343h2.452zm1.986-.707l-1.195.145q.092.813.668 1.316.576.503 1.45.503.923 0 1.543-.598.62-.597.62-1.445 0-.585-.332-.998-.332-.413-.886-.532.927-.505.927-1.353 0-.598-.452-1.072-.55-.58-1.46-.58-.531 0-.96.2-.428.2-.667.549-.24.35-.359.934l1.139.193q.048-.422.272-.642.224-.22.54-.22.321 0 .515.194.193.193.193.518 0 .383-.264.614-.263.23-.764.217l-.137 1.006q.33-.092.567-.092.36 0 .611.273.25.272.25.738 0 .492-.26.782-.262.29-.645.29-.355 0-.606-.242-.25-.241-.308-.698zm6.276 1.854v-1.296h-2.637v-1.081l2.795-4.092h1.037v4.087h.8v1.086h-.8v1.296H26.82zm7.01 0h1.234v-6.469h-1.002q-.21.59-.778 1.031-.567.442-1.05.6v1.12q.918-.303 1.595-.936v4.654zm7.25-1.147v1.147h-4.328q.07-.65.421-1.232.352-.583 1.389-1.545.835-.778 1.024-1.055.255-.382.255-.756 0-.413-.222-.635-.222-.222-.613-.222-.387 0-.615.233-.229.233-.264.774l-1.23-.123q.11-1.02.69-1.464.58-.444 1.45-.444.953 0 1.498.515.545.514.545 1.278 0 .435-.156.829-.156.393-.494.824-.224.285-.809.822-.584.536-.74.711-.156.176-.253.343h2.452zm1.986-.707l-1.195.145q.092.813.668 1.316.576.503 1.45.503.923 0 1.543-.598.62-.597.62-1.445 0-.585-.332-.998-.332-.413-.886-.532.927-.505.927-1.353 0-.598-.452-1.072-.55-.58-1.46-.58-.531 0-.96.2-.428.2-.667.549-.24.35-.359.934l1.139.193q.048-.422.272-.642.224-.22.54-.22.321 0 .515.194.193.193.193.518 0 .383-.264.614-.263.23-.764.217l-.136 1.006q.33-.092.566-.092.36 0 .611.273.25.272.25.738 0 .492-.26.782-.262.29-.645.29-.355 0-.606-.242-.25-.241-.308-.698zm6.276 1.854v-1.296h-2.637v-1.081l2.795-4.092h1.037v4.087h.8v1.086h-.8v1.296h-1.195zm11.773-4.865l-1.196.132q-.043-.369-.228-.545-.185-.175-.48-.175-.39 0-.66.351-.27.352-.341 1.464.461-.545 1.147-.545.773 0 1.325.588.551.59.551 1.521 0 .989-.58 1.586-.58.598-1.49.598-.975 0-1.603-.758-.629-.758-.629-2.485 0-1.771.655-2.553.655-.783 1.7-.783.734 0 1.216.411.48.411.613 1.193zm5.247 4.865h1.235v-6.469h-1.002q-.211.59-.778 1.031-.567.442-1.05.6v1.12q.918-.303 1.595-.936v4.654zm5.168-6.469q.936 0 1.463.668.629.791.629 2.624 0 1.828-.633 2.628-.523.659-1.46.659-.94 0-1.515-.723-.576-.723-.576-2.577 0-1.82.633-2.62.523-.659 1.459-.659zm6.468.668q-.527-.668-1.463-.668t-1.459.66q-.633.8-.633 2.619 0 1.854.576 2.577.576.723 1.516.723.936 0 1.46-.66.632-.799.632-2.627 0-1.833-.628-2.624zm3.542-.668q.937 0 1.464.668.628.791.628 2.624 0 1.828-.633 2.628-.522.659-1.459.659-.94 0-1.516-.723-.575-.723-.575-2.577 0-1.82.633-2.62.523-.659 1.459-.659zm6.47.668q-.528-.668-1.464-.668-.936 0-1.46.66-.632.8-.632 2.619 0 1.854.576 2.577.576.723 1.516.723.936 0 1.459-.66.633-.799.633-2.627 0-1.833-.629-2.624zm-34.836 4.017l-1.23.127q.11.809.672 1.288t1.454.479q1.117 0 1.745-.852.461-.625.461-1.42 0-.954-.57-1.551-.572-.598-1.394-.598-.43 0-.844.207l.194-1.095h2.329v-1.155h-3.265l-.633 3.353 1.002.145q.422-.47.953-.47.427 0 .692.296.266.297.266.89 0 .633-.268.947-.268.314-.654.314-.339 0-.598-.244-.26-.244-.312-.661zm18.356-3.66q-.224 0-.4.142-.176.143-.273.512-.127.48-.127 1.613 0 1.134.114 1.558.115.424.288.564.174.141.398.141.224 0 .4-.143.175-.143.272-.512.128-.474.128-1.608 0-1.134-.115-1.558-.114-.424-.288-.567-.173-.143-.397-.143zm4.605.142q.176-.143.4-.143.224 0 .398.143.173.143.288.567.114.424.114 1.558 0 1.134-.127 1.608-.097.37-.273.512-.176.143-.4.143-.224 0-.397-.14-.174-.141-.288-.565-.115-.424-.115-1.558 0-1.134.128-1.613.097-.369.272-.512zm5.405-.143q-.224 0-.4.143-.175.143-.272.512-.127.48-.127 1.613 0 1.134.114 1.558.114.424.288.564.173.141.397.141.225 0 .4-.143.176-.143.273-.512.127-.474.127-1.608 0-1.134-.114-1.558-.114-.424-.288-.567-.173-.143-.398-.143zm4.606.143q.176-.143.4-.143.224 0 .398.143.173.143.287.567.115.424.115 1.558 0 1.134-.128 1.608-.096.37-.272.512-.176.143-.4.143-.224 0-.398-.14-.173-.141-.288-.565-.114-.424-.114-1.558 0-1.134.128-1.613.096-.369.272-.512zM26.82 54.84v-2.201l-1.481 2.201h1.48zm22.522 0v-2.201l-1.481 2.201h1.48zm8.973.211q0 .602.277.93.277.327.633.327.343 0 .571-.268.229-.268.229-.879 0-.628-.246-.92-.246-.293-.615-.293-.356 0-.602.28-.247.278-.247.823zM91.551 50.752q.936 0 1.464.668.628.791.628 2.624 0 1.828-.633 2.628-.523.659-1.459.659-.94 0-1.516-.723-.575-.723-.575-2.577 0-1.82.632-2.62.523-.659 1.46-.659zm0 1.024q-.224 0-.4.143-.175.143-.272.512-.128.48-.128 1.613 0 1.134.115 1.558.114.424.288.565.173.14.397.14.224 0 .4-.143.176-.143.273-.512.127-.474.127-1.608 0-1.134-.114-1.558-.114-.424-.288-.567-.174-.143-.398-.143zM82.307 38.221h1.235v-6.469H82.54q-.21.59-.778 1.031-.567.442-1.05.6v1.12q.918-.303 1.595-.936v4.654zm7.251 0v-1.147h-2.452q.097-.167.253-.343.156-.175.74-.711.585-.537.809-.822.338-.43.494-.824.156-.394.156-.829 0-.764-.545-1.278-.545-.515-1.498-.515-.87 0-1.45.444t-.69 1.464l1.23.123q.035-.54.264-.774.228-.233.615-.233.391 0 .613.222.222.222.222.635 0 .374-.255.756-.189.277-1.024 1.055-1.037.962-1.389 1.545-.351.582-.422 1.232h4.33zm.791-1.71l1.195-.144q.058.457.308.698.25.242.606.242.383 0 .644-.29.262-.29.262-.782 0-.466-.25-.738-.251-.273-.612-.273-.237 0-.567.092l.137-1.006q.5.013.764-.217.264-.231.264-.614 0-.325-.193-.518-.194-.193-.514-.193-.317 0-.54.22-.225.219-.273.64l-1.139-.192q.12-.585.359-.934.24-.35.668-.55.428-.2.96-.2.91 0 1.459.58.452.475.452 1.073 0 .848-.927 1.353.554.119.886.532.331.413.331.998 0 .848-.62 1.445-.619.598-1.542.598-.874 0-1.45-.503t-.668-1.316zm7.47.414v1.296h1.196v-1.296h.8v-1.086h-.8v-4.087h-1.037l-2.795 4.092v1.08h2.637zm0-3.287v2.201h-1.48l1.48-2.201z"/><g transform="translate(2 2)"><use xlink:href="#aa" fill="none" stroke="#F94C45" stroke-width="4"/></g></svg><svg viewBox="0 0 112 71" id="visa" xmlns="http://www.w3.org/2000/svg"><defs><path d="M14.5 14C22.508 14 29 10.866 29 7s-6.492-7-14.5-7S0 3.134 0 7s6.492 7 14.5 7z" transform="translate(75 36)" id="ba"/></defs><path d="M4.999 2h102.002A3 3 0 01110 4.999v61.002A3 3 0 01107.001 69H4.999A2.999 2.999 0 012 66.001V4.999A2.999 2.999 0 014.999 2z" fill="#FFEEA1"/><path d="M2 13h108v14H2V13z"/><path d="M12 38h61v14H12V38z" fill="#FFF"/><path d="M24.802 49.947c.61-.552 1.092-1.232 1.576-1.884 1.234-1.844 2.302-3.783 3.443-5.68.134-.22.266-.441.399-.662a53.037 53.037 0 01-.649 2.778c-.325 1.305-.755 2.586-1.028 3.902-.085.494-.089.995-.092 1.493l-.002.18c.033.197.163.35.392.228 1.41-.761 1.387-.728 2.223-1.497.02-.02.041-.038.062-.057.175.19.379.6.487.78.262.391.48.527.963.508.55-.13 1.1-.233 1.664-.292.312-.024.237-.02.414-.029-.109.084-.214.171-.33.248l2.19-.855c.572-.404 1.039-.92 1.498-1.44.322.634.423 1.359.505 2.055.033.113.045.234.096.34.252.537.814.347 1.223.114.805-.456 1.598-.933 2.396-1.4l.16-.113c.048.004.096.005.142.019.218.068.419.247.617.356.301.164.256.133.598.266.562.147 1.13.079 1.697.01.242-.029.484-.058.726-.07 1.128.037 2.252.143 3.381.17.11-.002.222 0 .333 0 .433.004.868.008 1.282-.127L53 47.863c-.362.24-.802.243-1.231.247-.128 0-.254.002-.378.01-.975 0-1.946-.08-2.918-.16l-.444-.036h-.193c-.224-.001-.291-.001-.605.042l-.29.044c-.422.067-.844.134-1.272.039-.278-.101-.54-.211-.79-.37-.208-.133-.193-.163-.413-.276-.08-.042-.166-.072-.248-.107-.402.025-.547.03-.67.082-.225.095-.382.347-1.865 1.162-.315.173-.61.376-.9.583-.147-.07-.198-.29-.236-.438-.131-.885-.252-1.81-.756-2.58-.027-.025-.051-.064-.075-.103-.048-.077-.096-.153-.167-.129-2.133.735-2.165.94-3.269 2.25-.205.225-.412.45-.623.671l-.113.01c-.556.05-1.11.119-1.647.276-.43.081-.612.001-.863-.352-.163-.264-.39-.75-.605-.948-.048-.044-.108-.071-.162-.107-.85-.036-1.667.75-2.328 1.387l-.029.027c0-.458.01-.918.083-1.372.22-1.291.568-2.555.883-3.825.267-1.06.555-2.116.79-3.183.011-.05.236-1.149.24-1.317.002-.088-.018-.175-.038-.261A2.184 2.184 0 0131.84 39c-.504.266-1.03.493-1.51.799-.088.056-.109.176-.16.265-.095.166-.186.333-.279.499-.452.803-.917 1.6-1.392 2.391-1.137 1.916-2.223 3.864-3.51 5.692-.437.56-.868 1.115-1.387 1.609-.101.096-.205.19-.316.275-.044.035-.15.1-.212.138-.041.025-.062.038-.028.02.423-.227.837-.467 1.255-.701l-.966.751A1.62 1.62 0 0023 51l.336-.262c.46-.278 1.062-.426 1.466-.791zm14.687-3.816c-.101.061-.184.103-.278.155l.036-.037c.07-.055.32-.164.242-.118zm4.346 1.602c-.13.075-.24.136-.357.202l.02-.014a12.764 12.764 0 01.337-.188zm-2.869 1.402c.241-.062.873-.47.652-.356-.223.113-.441.235-.662.355h.01zm-11.042.281c.004.017.01.034.023.044.011.008.286-.206.185-.157-.071.034-.139.076-.208.113z" fill="#0052A9" fill-rule="evenodd"/><path d="M86.33 49.437h-1.51v-5.688q-.827.773-1.95 1.144v-1.37q.59-.193 1.284-.733.693-.54.95-1.26h1.225v7.907zm7.352-1.402v1.402h-5.29q.086-.795.515-1.507.43-.711 1.697-1.888 1.021-.95 1.252-1.289.312-.467.312-.923 0-.505-.272-.777-.271-.27-.749-.27-.473 0-.752.284-.28.285-.322.945l-1.504-.15q.134-1.246.843-1.789.71-.542 1.773-.542 1.165 0 1.831.628.666.629.666 1.563 0 .532-.19 1.013-.191.48-.605 1.007-.274.349-.988 1.004t-.905.87q-.19.215-.309.42h2.997zm2.428-.865l-1.461.178q.113.993.816 1.608.704.615 1.773.615 1.128 0 1.885-.73.757-.73.757-1.767 0-.715-.405-1.22-.406-.504-1.082-.65 1.133-.617 1.133-1.654 0-.73-.553-1.31-.672-.71-1.784-.71-.65 0-1.173.245-.524.245-.817.672-.292.427-.437 1.14l1.39.237q.06-.515.334-.784t.66-.269q.393 0 .629.237.236.236.236.634 0 .467-.322.749t-.935.266l-.166 1.23q.403-.113.693-.113.44 0 .746.333t.306.902q0 .602-.32.956-.319.355-.786.355-.435 0-.741-.296-.306-.295-.376-.854z"/><use xlink:href="#ba" fill="none" stroke="#F94C45" stroke-width="4" transform="translate(2 2)"/></svg></svg>